<svg width="24" height="42" viewBox="0 0 24 42" fill="none" xmlns="http://www.w3.org/2000/svg">
<path d="M23.1003 38.7131L23.0115 38.6969L22.9123 38.6775L22.7101 38.6364L22.2999 38.5484C22.0254 38.488 21.7496 38.4235 21.4742 38.3568C20.9236 38.2229 20.3727 38.0782 19.8245 37.9244C18.7275 37.6162 17.6409 37.2707 16.5647 36.8879C15.4923 36.5053 14.4302 36.0836 13.3918 35.6177C12.3534 35.1517 11.3345 34.6416 10.3527 34.0786C9.37084 33.5198 8.42629 32.8962 7.52511 32.2119C6.63079 31.5346 5.80028 30.7747 5.04413 29.9419C4.29356 29.1179 3.65146 28.1984 3.1338 27.2063C2.62076 26.2118 2.26773 25.14 2.08807 24.0312C2.0423 23.7542 2.01446 23.4694 1.99387 23.184C1.97327 22.8987 1.96213 22.6131 1.95844 22.3266C1.9534 21.751 1.9813 21.1754 2.04199 20.6027C2.16619 19.4498 2.40127 18.3114 2.74387 17.2041C3.09003 16.086 3.51747 14.9953 4.02267 13.941C4.5304 12.8802 5.0974 11.8494 5.72088 10.8539C6.96694 8.85572 8.40758 6.97638 9.96698 5.20225C10.747 4.31561 11.5566 3.45605 12.3958 2.62354C12.8153 2.20762 13.2416 1.79878 13.6748 1.39701C14.1087 0.996746 14.5485 0.601978 15.0025 0.223946C14.534 0.583298 14.0787 0.960189 13.6284 1.34338C13.1782 1.72656 12.7361 2.11977 12.2995 2.51948C11.4273 3.31933 10.5812 4.14895 9.76132 5.00833C8.12487 6.72654 6.59752 8.56195 5.25215 10.5395C4.57614 11.5292 3.95657 12.5574 3.39652 13.6188C2.83146 14.687 2.34559 15.7962 1.94297 16.9372C1.53644 18.0885 1.24167 19.277 1.06289 20.4857C0.974956 21.0943 0.921677 21.7075 0.903323 22.3222C0.892995 22.6298 0.893235 22.9383 0.904043 23.2477C0.914256 23.5567 0.935049 23.8642 0.958645 24.1777C1.06799 25.4331 1.3741 26.662 1.86542 27.8178C2.35942 28.9703 2.99859 30.0523 3.76699 31.0369C4.52736 32.0131 5.37499 32.9157 6.29913 33.7333C7.21501 34.5441 8.18245 35.2929 9.19523 35.9749C10.2016 36.658 11.2427 37.283 12.3059 37.8602C13.3691 38.4374 14.4542 38.9673 15.5558 39.4577C16.6574 39.948 17.7749 40.3986 18.9079 40.8117C19.4744 41.0177 20.0453 41.2147 20.6208 41.4027C20.9085 41.4969 21.198 41.5878 21.4895 41.6757L21.9318 41.8036L22.1556 41.8675L22.2704 41.8989L22.3955 41.9323L23.1003 38.7131Z" fill="#F5F5F7"/>
</svg>
